<?xml version="1.0" encoding="utf-8"?>
<!-- Generator: Adobe Illustrator 27.8.1, SVG Export Plug-In . SVG Version: 6.00 Build 0)  -->
<svg version="1.1" id="Ebene_2_00000002343495195591914650000002857020194734344348_"
	 xmlns="http://www.w3.org/2000/svg" xmlns:xlink="http://www.w3.org/1999/xlink" x="0px" y="0px" viewBox="0 0 538.8 1081.2"
	 style="enable-background:new 0 0 538.8 1081.2;" xml:space="preserve">
<g id="Ebene_3_Kopie_Kopie_Kopie_Kopie_Kopie_Kopie_Kopie">
	<path d="M469.4,13.3c0,0,21.7,48.2-6.5,133.4c-25.2,66.4-56.9,111.8-132.8,189.5c-7.3,7.5-18.2,18.8-30.7,30.3
		c-5.2,4.8-8.8,9-12.5,12.4c-0.5,0.4-5.2,6.4-5.6,6.8c-0.6,0.7-25.6,76.5-22.9,74.8c3.8-2.3-0.9-57-2.4-57.1c-0.7,0-0.8,2.6-1.8,4.1
		c-1,1.7-2.6,3.9-5.4,6.6c-16.3,14-32.7,24.7-34.4,26C153.4,490,88.6,540.7,62.2,586.9c-10.7,18.8-2.8,4.3-5.7,9.8
		c0,0,2.8,82.9,3,89.1c0.1,3.7-10.5-35.3-16.2-48.2c-8.5-18.9-14.3-21.3-14.3-21.3c4.5,14.5,3.8,19.5,3.1,30.7
		c-0.7,10-19.7,74-25,111c-5,35-7.5,70-6.9,99c2.2,100.3,27.4,224.3,27.4,224.3S5,883.2,50.2,769.2C93,661.2,192.4,561.3,198.9,555
		S352.8,405.7,382,370.2c35-42.5,76.3-101.7,95.5-166.5c12-40.5,15.8-89.3,14-114.5C487.3,33.2,469.4,13.3,469.4,13.3L469.4,13.3z"
		/>
	<path d="M472.6,8c-2.8-4.7-5.4-8-5.4-8C468,0,502,41.3,521,99.2c19.7,60.1,24.3,98.7,7.8,203.4c-1.1,1.4-84.5,72.6-84.5,72.6
		s88.1-48.9,85.3-43c-11.3,24.3-28.7,80.3-43.3,115c-16.3,38.5-37.3,82.7-59.3,118c-20,36.7-22.5,36.7-22.5,36.7
		c-8.4,8.8-135.4,37.6-120.9,37.3c0,0,44.2-5.7,54-6.7c26-2.7,30.6-2.3,50.8-2.3c-20,18.5-43.7,61.6-57.4,69.3
		c0,0-130.8,32.9-136.8,37c7.4-2.1,58.7-11.7,91.7-15.7c21.2-2.6,37.5,1.4,37.9,2.1c-51.7,20.5-95.3,64.9-115.2,81
		c-21.2,17.2-51.7,50.5-54.8,51.8c-132-2-119,225.5-119,225.5S16.1,913.5,55.8,802.9C93.4,698.3,158,626.8,220,560.2
		c63.4-68.1,166.5-165.1,206-225.7c33.5-51.3,65.9-119.3,71-187.3C501.6,83.9,496,51.6,472.6,8L472.6,8z"/>
</g>
</svg>
